PathFileType	4	(x/y/z)	S05_P20_T08
DataRate	CameraRate	NumFrames	NumMarkers	Units	OrigDataRate	OrigDataStartFrame	OrigNumFrames
240	240	6	50	mm	240	49	386
Frame#	Time	Sternum			R.Acromium			L.Acromium			Top.Head			R.ASIS			L.ASIS			R.PSIS			L.PSIS			R.Great.Tro			L.Great.Tro			R.Iliac.Crest			L.Iliac.Crest			V.Sacral			R.Thigh.Upper.Post			R.Thigh.Lower.Ant			R.Thigh.Lower.Post			R.Thigh.Upper.Ant			R.Knee.Lat			R.Knee.Med			R.Shank.Upper.Post			R.Shank.Lower.Ant			R.Shank.Lower.Post			R.Shank.Upper.Ant			R.Ankle.Lat			R.Ankle.Med			R.Heel.Upper			R.Heel.Med			R.Heel.Lat			R.Toe.Lat			R.Toe.Med			R.Toe.Tip			L.Thigh.Upper.Post			L.Thigh.Lower.Ant			L.Thigh.Lower.Post			L.Thigh.Upper.Ant			L.Knee.Lat			L.Shank.Upper.Post			L.Shank.Lower.Ant			L.Shank.Lower.Post			L.Shank.Upper.Ant			L.Ankle.Lat			L.Ankle.Med			L.Heel.Upper			L.Heel.Med			L.Heel.Lat			L.Toe.Lat			L.Toe.Med			L.Toe.Tip			Cervical.Spine			Back			
		X1	Y1	Z1	X2	Y2	Z2	X3	Y3	Z3	X4	Y4	Z4	X5	Y5	Z5	X6	Y6	Z6	X7	Y7	Z7	X8	Y8	Z8	X9	Y9	Z9	X10	Y10	Z10	X11	Y11	Z11	X12	Y12	Z12	X13	Y13	Z13	X14	Y14	Z14	X15	Y15	Z15	X16	Y16	Z16	X17	Y17	Z17	X18	Y18	Z18	X19	Y19	Z19	X20	Y20	Z20	X21	Y21	Z21	X22	Y22	Z22	X23	Y23	Z23	X24	Y24	Z24	X25	Y25	Z25	X26	Y26	Z26	X27	Y27	Z27	X28	Y28	Z28	X29	Y29	Z29	X30	Y30	Z30	X31	Y31	Z31	X32	Y32	Z32	X33	Y33	Z33	X34	Y34	Z34	X35	Y35	Z35	X36	Y36	Z36	X37	Y37	Z37	X38	Y38	Z38	X39	Y39	Z39	X40	Y40	Z40	X41	Y41	Z41	X42	Y42	Z42	X43	Y43	Z43	X44	Y44	Z44	X45	Y45	Z45	X46	Y46	Z46	X47	Y47	Z47	X48	Y48	Z48	X49	Y49	Z49	X50	Y50	Z50	

49	0.2	-1134.4	1253.9	319.02	-1223.5	1516.6	471.83	-1238.8	1524	137.5	-1242.5	1823.6	282.67	-1213.7	998.07	449.37	NaN	NaN	NaN	NaN	NaN	NaN	NaN	NaN	NaN	-1300.2	917.61	506.29	-1272.8	933.95	117.3	-1303.4	1084.1	484.31	-1282.6	1088.4	148.86	-1418.3	989.68	316.49	-1226.4	699.89	516.91	-1159.6	630.13	471.74	-1220	608.34	499.86	-1161.7	718.48	488.13	-1228.7	514.91	486.9	-1209.5	494.35	354.42	-1447.5	412.54	456.53	-1459.3	323.45	454.48	-1504.3	364.72	435.33	-1393.8	368.64	473.4	-1552	273.78	431.03	-1509.3	275.76	347.23	-1619.4	292.02	357.35	-1630.3	263.41	327.19	-1644.1	270.11	390.78	-1563	132.66	461.33	-1512.2	107.84	352.07	NaN	NaN	NaN	-1226.8	697.22	126.98	-1133.4	640.5	150.55	-1199.8	607.15	144.58	-1153.4	727.96	133.07	-1167.6	521.89	151.64	-1217.6	317.73	152.89	-1146.8	263.85	159.5	-1215.7	246.05	171.86	-1152.4	333.01	145.52	-1179.5	110.45	184.35	-1146.7	129.58	269.13	NaN	NaN	NaN	-1222	40.932	271.71	-1233.5	37.822	212.02	-1053.9	38.952	149.14	-1026.1	56.095	266.28	-965.71	68.138	208.47	-1286.5	1562.6	311.92	-1404	1288	319.25
50	0.20417	-1129	1254.3	318.69	-1217.8	1517.1	471.45	-1233	1524.6	137.11	-1236.8	1824.3	282.21	-1208.2	998.9	448.79	NaN	NaN	NaN	NaN	NaN	NaN	NaN	NaN	NaN	-1294.1	918.32	506	-1268.1	934.52	116.88	-1297.9	1084.8	483.87	-1277.5	1089	148.39	-1413	990.25	316.26	-1216.6	701.28	516.63	-1149.7	632.81	471.08	-1209.8	610.01	499.67	-1153.7	721.01	487.25	-1217.1	516.46	486.58	-1198.2	496.51	354.08	-1435.7	413.67	455.96	-1447.3	324.55	453.84	-1492.5	365.77	434.83	-1382	369.96	472.77	-1539.8	274.77	430.31	-1497.3	277.11	346.28	-1607.8	292.37	356.61	-1618.5	263.53	326.58	-1632.2	270.43	390.17	-1549.3	134.02	460.9	-1498.9	109.23	351.5	NaN	NaN	NaN	-1223.1	697.63	126.72	-1130.1	640.46	150.24	-1196.6	607.43	144.32	-1149.6	728.02	132.68	-1164.8	521.91	151.48	-1216.2	318.02	153.01	-1145.6	263.69	159.51	-1214.6	246.3	171.97	-1150.8	332.9	145.49	-1179.2	110.59	184.49	-1146.3	129.55	269.29	NaN	NaN	NaN	-1221.9	41.022	271.77	-1233.4	37.979	212.06	-1053.8	38.901	149.15	-1026	55.722	266.37	-965.51	67.634	208.54	-1280.8	1563.3	311.53	-1398.6	1288.9	318.65
51	0.20833	-1123.5	1254.8	318.37	-1212.1	1517.7	471.1	-1227.2	1525.1	136.75	-1231	1824.9	281.8	-1202.6	999.78	448.21	NaN	NaN	NaN	NaN	NaN	NaN	NaN	NaN	NaN	-1288.1	919.1	505.72	-1263.4	935.08	116.48	-1292.5	1085.6	483.44	-1272.5	1089.7	147.92	-1407.8	990.86	316.04	-1207	702.78	516.31	-1139.8	635.55	470.39	-1199.7	611.77	499.4	-1145.5	723.62	486.38	-1205.6	518.11	486.2	-1187	498.73	353.69	-1423.9	414.56	455.34	-1435	325.41	453.17	-1480.6	366.49	434.29	-1370.1	371.13	472.11	-1527.4	275.36	429.58	-1485.2	278.13	345.31	-1595.9	292.22	355.87	-1606.4	263.14	325.97	-1620.1	270.21	389.55	-1535.3	134.98	460.44	-1485	110.33	350.89	NaN	NaN	NaN	-1219.5	698.04	126.49	-1126.8	640.41	149.98	-1193.4	607.71	144.09	-1145.8	728.08	132.35	-1162.2	521.93	151.35	-1214.8	318.3	153.16	-1144.5	263.55	159.55	-1213.5	246.55	172.11	-1149.3	332.81	145.5	-1178.8	110.73	184.63	-1145.9	129.53	269.46	NaN	NaN	NaN	-1221.9	41.121	271.85	-1233.3	38.148	212.1	-1053.7	38.865	149.16	-1025.9	55.359	266.47	-965.32	67.159	208.62	-1275.2	1564	311.15	-1393.2	1289.7	318.06
52	0.2125	-1118.2	1255.3	318.06	-1206.5	1518.2	470.76	-1221.4	1525.7	136.41	-1225.3	1825.6	281.42	-1197.1	1000.7	447.64	NaN	NaN	NaN	NaN	NaN	NaN	NaN	NaN	NaN	-1282.1	919.93	505.45	-1258.7	935.64	116.1	-1287.1	1086.4	483.01	-1267.4	1090.3	147.46	-1402.5	991.51	315.83	-1197.5	704.4	515.94	-1130	638.34	469.66	-1189.7	613.63	499.07	-1137.3	726.29	485.51	-1194.3	519.85	485.77	-1175.8	501.01	353.25	-1412	415.21	454.67	-1422.6	326.03	452.49	-1468.5	366.88	433.7	-1358.1	372.15	471.43	-1514.8	275.55	428.82	-1472.8	278.81	344.34	-1583.9	291.58	355.12	-1594	262.23	325.34	-1607.8	269.46	388.91	-1520.8	135.53	459.96	-1470.8	111.12	350.24	NaN	NaN	NaN	-1216	698.46	126.3	-1123.6	640.36	149.77	-1190.2	607.99	143.89	-1142	728.13	132.07	-1159.6	521.95	151.25	-1213.4	318.58	153.34	-1143.4	263.42	159.6	-1212.5	246.8	172.27	-1147.9	332.73	145.54	-1178.5	110.87	184.78	-1145.6	129.52	269.64	NaN	NaN	NaN	-1221.8	41.234	271.93	-1233.3	38.326	212.14	-1053.6	38.844	149.18	-1025.8	55.006	266.56	-965.13	66.71	208.7	-1269.5	1564.7	310.79	-1387.8	1290.6	317.47
53	0.21667	-1112.8	1255.8	317.75	-1200.9	1518.8	470.44	-1215.6	1526.4	136.09	-1219.5	1826.4	281.09	-1191.6	1001.7	447.07	NaN	NaN	NaN	NaN	NaN	NaN	NaN	NaN	NaN	-1276.2	920.82	505.21	-1254	936.19	115.75	-1281.7	1087.3	482.58	-1262.3	1091	147.02	-1397.3	992.21	315.63	-1188.2	706.14	515.55	-1120.3	641.19	468.91	-1179.8	615.58	498.69	-1129.1	729.02	484.65	-1183.1	521.68	485.28	-1164.6	503.34	352.77	-1400.1	415.62	453.96	-1410.1	326.4	451.78	-1456.4	366.95	433.07	-1346.2	373.02	470.72	-1501.9	275.33	428.05	-1460.2	279.16	343.36	-1571.7	290.45	354.37	-1581.4	260.83	324.69	-1595.2	268.19	388.24	-1506	135.68	459.45	-1456.1	111.62	349.57	NaN	NaN	NaN	-1212.4	698.88	126.13	-1120.4	640.3	149.61	-1187.1	608.27	143.71	-1138.3	728.18	131.83	-1157.1	521.96	151.18	-1212.1	318.85	153.53	-1142.4	263.3	159.67	-1211.5	247.06	172.46	-1146.5	332.67	145.61	-1178.2	111.02	184.93	-1145.2	129.51	269.82	NaN	NaN	NaN	-1221.8	41.361	272.03	-1233.2	38.511	212.18	-1053.5	38.834	149.2	-1025.7	54.663	266.66	-964.95	66.285	208.78	-1263.8	1565.5	310.45	-1382.4	1291.5	316.89
54	0.22083	-1107.4	1256.3	317.46	-1195.3	1519.4	470.13	-1209.9	1527	135.78	-1213.8	1827.1	280.81	-1186.1	1002.7	446.51	NaN	NaN	NaN	NaN	NaN	NaN	NaN	NaN	NaN	-1270.3	921.76	504.99	-1249.2	936.75	115.43	-1276.3	1088.2	482.15	-1257.3	1091.6	146.59	-1392	992.93	315.43	-1179	707.98	515.15	-1110.7	644.08	468.15	-1169.9	617.6	498.25	-1120.8	731.79	483.8	-1172.1	523.57	484.74	-1153.5	505.72	352.25	-1388.3	415.79	453.2	-1397.5	326.52	451.05	-1444.2	366.68	432.39	-1334.2	373.73	469.99	-1488.7	274.73	427.27	-1447.4	279.16	342.39	-1559.3	288.85	353.6	-1568.6	258.94	324.03	-1582.5	266.41	387.55	-1490.7	135.44	458.94	-1441	111.81	348.89	NaN	NaN	NaN	-1208.9	699.31	125.99	-1117.3	640.24	149.47	-1184	608.56	143.56	-1134.6	728.23	131.64	-1154.6	521.98	151.14	-1210.8	319.12	153.73	-1141.4	263.18	159.76	-1210.5	247.32	172.65	-1145.1	332.62	145.69	-1177.9	111.18	185.08	-1144.8	129.51	270.02	NaN	NaN	NaN	-1221.7	41.504	272.14	-1233.1	38.704	212.22	-1053.4	38.832	149.22	-1025.6	54.33	266.75	-964.78	65.881	208.85	-1258.2	1566.2	310.12	-1377.1	1292.3	316.32
